HIERARCHY
ROOT hip
{
  OFFSET 0 0 0
  CHANNELS 6 Xposition Yposition Zposition Zrotation Yrotation Xrotation
  JOINT abdomen
  {
    OFFSET 0 20.6881 -0.73152
    CHANNELS 3 Zrotation Xrotation Yrotation
    JOINT chest
    {
      OFFSET 0 11.7043 -0.48768
      CHANNELS 3 Zrotation Xrotation Yrotation
      JOINT neck
      {
        OFFSET 0 22.1894 -2.19456
        CHANNELS 3 Zrotation Xrotation Yrotation
        JOINT head
        {
          OFFSET -0.24384 7.07133 1.2192
          CHANNELS 3 Zrotation Xrotation Yrotation
          JOINT leftEye
          {
            OFFSET 4.14528 8.04674 8.04672
            CHANNELS 3 Zrotation Xrotation Yrotation
            End Site
            {
              OFFSET 1 0 0
            }
          }
          JOINT rightEye
          {
            OFFSET -3.6576 8.04674 8.04672
            CHANNELS 3 Zrotation Xrotation Yrotation
            End Site
            {
              OFFSET 1 0 0
            }
          }
        }
      }
      JOINT rCollar
      {
        OFFSET -2.68224 19.2634 -4.8768
        CHANNELS 3 Zrotation Xrotation Yrotation
        JOINT rShldr
        {
          OFFSET -8.77824 -1.95073 1.46304
          CHANNELS 3 Zrotation Xrotation Yrotation
          JOINT rForeArm
          {
            OFFSET -28.1742 -1.7115 0.48768
            CHANNELS 3 Zrotation Xrotation Yrotation
            JOINT rHand
            {
              OFFSET -22.5879 0.773209 7.07136
              CHANNELS 3 Zrotation Xrotation Yrotation
              JOINT rThumb1
              {
                OFFSET -1.2192 -0.487915 3.41376
                CHANNELS 3 Zrotation Xrotation Yrotation
                JOINT rThumb2
                {
                  OFFSET -3.37035 -0.52449 3.41376
                  CHANNELS 3 Zrotation Xrotation Yrotation
                  End Site
                  {
                    OFFSET -1.78271 -1.18214 1.43049
                  }
                }
              }
              JOINT rIndex1
              {
                OFFSET -7.75947 0.938293 5.60832
                CHANNELS 3 Zrotation Xrotation Yrotation
                JOINT rIndex2
                {
                  OFFSET -2.54057 -0.884171 1.56538
                  CHANNELS 3 Zrotation Xrotation Yrotation
                  End Site
                  {
                    OFFSET -1.62519 -0.234802 1.16502
                  }
                }
              }
              JOINT rMid1
              {
                OFFSET -8.24714 1.18213 3.41376
                CHANNELS 3 Zrotation Xrotation Yrotation
                JOINT rMid2
                {
                  OFFSET -3.10165 -0.590103 1.0647
                  CHANNELS 3 Zrotation Xrotation Yrotation
                  End Site
                  {
                    OFFSET -2.48547 -0.328903 0.83742
                  }
                }
              }
              JOINT rRing1
              {
                OFFSET -8.82822 0.546677 1.51678
                CHANNELS 3 Zrotation Xrotation Yrotation
                JOINT rRing2
                {
                  OFFSET -2.60934 -0.819778 -0.0198488
                  CHANNELS 3 Zrotation Xrotation Yrotation
                  End Site
                  {
                    OFFSET -2.33842 -0.294052 0.168128
                  }
                }
              }
              JOINT rPinky1
              {
                OFFSET -8.27202 -0.0477905 -0.4584
                CHANNELS 3 Zrotation Xrotation Yrotation
                JOINT rPinky2
                {
                  OFFSET -1.82734 -0.647385 -0.700984
                  CHANNELS 3 Zrotation Xrotation Yrotation
                  End Site
                  {
                    OFFSET -1.69225 -0.51767 -0.607171
                  }
                }
              }
            }
          }
        }
      }
      JOINT lCollar
      {
        OFFSET 2.68224 19.2634 -4.8768
        CHANNELS 3 Zrotation Xrotation Yrotation
        JOINT lShldr
        {
          OFFSET 8.77824 -1.95073 1.46304
          CHANNELS 3 Zrotation Xrotation Yrotation
          JOINT lForeArm
          {
            OFFSET 28.1742 -1.7115 0.48768
            CHANNELS 3 Zrotation Xrotation Yrotation
            JOINT lHand
            {
              OFFSET 22.5879 0.773209 7.07136
              CHANNELS 3 Zrotation Xrotation Yrotation
              JOINT lThumb1
              {
                OFFSET 1.2192 -0.487915 3.41376
                CHANNELS 3 Zrotation Xrotation Yrotation
                JOINT lThumb2
                {
                  OFFSET 3.37035 -0.52449 3.41376
                  CHANNELS 3 Zrotation Xrotation Yrotation
                  End Site
                  {
                    OFFSET 1.78271 -1.18214 1.43049
                  }
                }
              }
              JOINT lIndex1
              {
                OFFSET 7.75947 0.938293 5.60832
                CHANNELS 3 Zrotation Xrotation Yrotation
                JOINT lIndex2
                {
                  OFFSET 2.54057 -0.884171 1.56538
                  CHANNELS 3 Zrotation Xrotation Yrotation
                  End Site
                  {
                    OFFSET 1.62519 -0.234802 1.16502
                  }
                }
              }
              JOINT lMid1
              {
                OFFSET 8.24714 1.18213 3.41376
                CHANNELS 3 Zrotation Xrotation Yrotation
                JOINT lMid2
                {
                  OFFSET 3.10165 -0.590103 1.0647
                  CHANNELS 3 Zrotation Xrotation Yrotation
                  End Site
                  {
                    OFFSET 2.48547 -0.328903 0.83742
                  }
                }
              }
              JOINT lRing1
              {
                OFFSET 8.82822 0.546677 1.51678
                CHANNELS 3 Zrotation Xrotation Yrotation
                JOINT lRing2
                {
                  OFFSET 2.60934 -0.819778 -0.0198488
                  CHANNELS 3 Zrotation Xrotation Yrotation
                  End Site
                  {
                    OFFSET 2.33842 -0.294052 0.168128
                  }
                }
              }
              JOINT lPinky1
              {
                OFFSET 8.27202 -0.0477905 -0.4584
                CHANNELS 3 Zrotation Xrotation Yrotation
                JOINT lPinky2
                {
                  OFFSET 1.82734 -0.647385 -0.700984
                  CHANNELS 3 Zrotation Xrotation Yrotation
                  End Site
                  {
                    OFFSET 1.69225 -0.51767 -0.607171
                  }
                }
              }
            }
          }
        }
      }
    }
  }
  JOINT rButtock
  {
    OFFSET -8.77824 4.35084 1.2192
    CHANNELS 3 Zrotation Xrotation Yrotation
    JOINT rThigh
    {
      OFFSET 0 -1.70687 -2.19456
      CHANNELS 3 Zrotation Xrotation Yrotation
      JOINT rShin
      {
        OFFSET 0 -36.8199 0.73152
        CHANNELS 3 Zrotation Xrotation Yrotation
        JOINT rFoot
        {
          OFFSET 0.73152 -45.1104 -5.12064
          CHANNELS 3 Zrotation Xrotation Yrotation
          End Site
          {
            OFFSET -1.1221 -3.69964 12.103
          }
        }
      }
    }
  }
  JOINT lButtock
  {
    OFFSET 8.77824 4.35084 1.2192
    CHANNELS 3 Zrotation Xrotation Yrotation
    JOINT lThigh
    {
      OFFSET 0 -1.70687 -2.19456
      CHANNELS 3 Zrotation Xrotation Yrotation
      JOINT lShin
      {
        OFFSET 0 -36.8199 0.73152
        CHANNELS 3 Zrotation Xrotation Yrotation
        JOINT lFoot
        {
          OFFSET -0.73152 -45.1104 -5.12064
          CHANNELS 3 Zrotation Xrotation Yrotation
          End Site
          {
            OFFSET 1.1221 -3.69964 12.103
          }
        }
      }
    }
  }
}
MOTION
Frames:	6
Frame Time:	0.00833333
57.2242 85.1527 3.48943 0.0 0.0 0.0 0.451116 -0.0026513 0.0129079 0.124552 -0.00414965 0.0215801 -6.25353e-15 0.0 3.72721e-17 -1.87883e-14 3.18055e-15 1.11816e-16 -0.0 0.0 0.0 -0.0 0.0 0.0 -2.98316e-15 5.43552e-18 2.98177e-16 -6.52448e-14 -2.79541e-16 7.95139e-16 -1.1283e-12 3.42506e-13 5.40694e-14 -1.2902e-11 -3.07744e-13 6.36111e-15 -3.04397e-11 8.09145e-14 1.55847e-13 -5.25821e-11 1.46306e-13 2.72733e-13 -3.04347e-11 8.0309e-14 1.43125e-13 7.73091 5.47488 0.417314 -3.04418e-11 8.10047e-14 1.55847e-13 2.90554 0.965183 0.102902 -3.04361e-11 8.0309e-14 1.62208e-13 10.2786 0.731801 0.0259123 -3.04467e-11 8.42847e-14 1.7175e-13 2.22167 -0.733487 -0.20892 -3.37816e-15 5.43552e-18 -2.98177e-16 -6.67872e-14 -2.60905e-16 -5.96354e-16 -1.12905e-12 -3.31374e-13 -6.36111e-15 -1.29033e-11 3.68447e-13 9.85972e-14 -3.04357e-11 8.57844e-14 1.7175e-13 -5.25531e-11 1.52667e-13 2.8625e-13 -3.04367e-11 8.50798e-14 1.84472e-13 -7.73091 5.47488 -0.417314 -3.04335e-11 8.45829e-14 1.62208e-13 -2.90554 0.965183 -0.102902 -3.04362e-11 8.57756e-14 1.65389e-13 -10.2786 0.731801 -0.0259123 -3.04244e-11 8.8658e-14 1.46306e-13 -2.22167 -0.733487 0.20892 -2.03217e-16 0.0 -3.88251e-19 0.825545 -4.24952 -0.0689668 -0.00260447 2.14565 -0.0170952 -0.486207 2.10403 0.0980454 2.03217e-16 0.0 3.88251e-19 -0.137883 -2.5009 0.0253445 0.00751454 -1.02177 0.0650245 0.479191 3.52276 -0.125844
57.1855 85.2194 5.0507 -1.8026 3.7318 -7.7142 -0.286363 2.29078 -1.37958 0.381258 -0.216467 -0.38605 -1.28635 1.75239 -1.74667 2.76991 -7.80893 -2.59882 -0.0 0.0 0.0 -0.0 0.0 0.0 -1.41872e-14 -5.75942e-14 1.23169e-14 22.622 7.52655 -0.968616 -4.10153 -1.8406 6.43105 0.0178278 -2.96297 -0.41441 1.15829e-10 -9.67259e-11 2.97983e-10 1.98138e-10 -1.63983e-10 5.16296e-10 1.15833e-10 -9.67254e-11 2.97972e-10 7.73091 5.47488 0.417314 1.15827e-10 -9.67243e-11 2.97983e-10 2.90554 0.965183 0.102902 1.15833e-10 -9.67258e-11 2.97987e-10 10.2786 0.731801 0.0259123 1.15821e-10 -9.67229e-11 2.97996e-10 2.22167 -0.733487 -0.20892 -1.45202e-14 -5.75962e-14 1.18032e-14 -23.2198 6.23156 0.204651 3.42435 -1.42542 -5.48192 -0.0528276 -5.10725 0.707555 1.14788e-10 2.56927e-10 -4.68607e-10 2.04943e-10 4.5205e-10 -8.08589e-10 1.14783e-10 2.56925e-10 -4.68593e-10 -7.73091 5.47488 -0.417314 1.14787e-10 2.56925e-10 -4.68612e-10 -2.90554 0.965183 -0.102902 1.14783e-10 2.56926e-10 -4.68609e-10 -10.2786 0.731801 -0.0259123 1.14799e-10 2.5693e-10 -4.68624e-10 -2.22167 -0.733487 0.20892 -2.03217e-16 0.0 -3.88251e-19 -0.205343 -5.15285 1.86908 -0.00795974 6.55931 0.036692 -0.646768 1.14856 -2.92052 2.03217e-16 0.0 3.88251e-19 -1.17143 0.217052 0.575625 -0.00802818 2.6591 -0.0393312 1.02895 -0.630344 6.17626
57.1296 85.2197 5.06197 -2.0376 3.6757 -7.79 -0.94305 4.70692 -2.85245 0.649324 -0.441306 -0.815025 -2.52623 3.59655 -3.59798 4.88206 -16.0085 -5.51467 -0.0 0.0 0.0 -0.0 0.0 0.0 -2.64139e-14 -1.19916e-13 2.68732e-14 46.8228 15.4645 -2.054 -7.984 -3.70398 13.2396 -0.0101534 -6.0884 -0.855312 2.78619e-10 -1.86063e-10 6.1628e-10 4.7724e-10 -3.14853e-10 1.06786e-09 2.78621e-10 -1.86062e-10 6.16271e-10 7.73091 5.47488 0.417314 2.78616e-10 -1.8606e-10 6.1628e-10 2.90554 0.965183 0.102902 2.78622e-10 -1.86063e-10 6.16282e-10 10.2786 0.731801 0.0259123 2.7861e-10 -1.86061e-10 6.16291e-10 2.22167 -0.733487 -0.20892 -2.6682e-14 -1.1992e-13 2.64477e-14 -47.8184 12.8015 0.433514 6.74123 -2.88371 -11.2752 0.0305184 -10.477 1.47075 2.7848e-10 5.56289e-10 -9.7222e-10 4.94883e-10 9.7823e-10 -1.67751e-09 2.7847e-10 5.56287e-10 -9.72204e-10 -7.73091 5.47488 -0.417314 2.78475e-10 5.56286e-10 -9.72221e-10 -2.90554 0.965183 -0.102902 2.7847e-10 5.56287e-10 -9.72218e-10 -10.2786 0.731801 -0.0259123 2.78489e-10 5.56292e-10 -9.72227e-10 -2.22167 -0.733487 0.20892 -2.03217e-16 0.0 -3.88251e-19 -1.22737 -6.09616 3.92733 -0.022782 11.2201 0.0946948 -0.925027 0.146086 -6.10953 2.03217e-16 0.0 3.88251e-19 -2.32236 3.09049 1.15928 -0.00978707 6.55016 -0.150439 2.59766 -4.89452 12.8928
57.1019 85.2217 5.06634 -2.1842 3.657 -7.8721 -1.42517 6.86142 -4.19133 0.885608 -0.640974 -1.20138 -3.53787 5.23758 -5.25958 6.03303 -23.2253 -8.40999 -0.0 0.0 0.0 -0.0 0.0 0.0 -3.65954e-14 -1.72794e-13 3.63543e-14 68.6829 22.5527 -3.11958 -11.0867 -5.2441 19.3674 -0.0764195 -8.88704 -1.25666 4.08368e-10 -2.9034e-10 8.93636e-10 6.99578e-10 -4.92243e-10 1.54834e-09 4.08368e-10 -2.90337e-10 8.93629e-10 7.73091 5.47488 0.417314 4.08364e-10 -2.90335e-10 8.93636e-10 2.90554 0.965183 0.102902 4.08371e-10 -2.90338e-10 8.93635e-10 10.2786 0.731801 0.0259123 4.08358e-10 -2.90337e-10 8.93645e-10 2.22167 -0.733487 -0.20892 -3.68044e-14 -1.72799e-13 3.6006e-14 -69.7994 18.6937 0.644318 9.46547 -4.11994 -16.4845 0.231695 -15.3122 2.19209 4.05237e-10 7.70609e-10 -1.40617e-09 7.19934e-10 1.35584e-09 -2.42634e-09 4.05223e-10 7.70605e-10 -1.40615e-09 -7.73091 5.47488 -0.417314 4.05229e-10 7.70604e-10 -1.40616e-09 -2.90554 0.965183 -0.102902 4.05223e-10 7.70605e-10 -1.40616e-09 -10.2786 0.731801 -0.0259123 4.05245e-10 7.70612e-10 -1.40616e-09 -2.22167 -0.733487 0.20892 -2.03217e-16 0.0 -3.88251e-19 -2.08301 -6.93279 5.7644 -0.0443124 15.3866 0.148857 -1.26886 -0.748684 -8.95654 2.03217e-16 0.0 3.88251e-19 -3.39567 5.65055 1.68441 0.00153474 10.0208 -0.251735 4.84085 -8.4677 18.9937
57.2453 85.1714 5.01269 -1.5466 3.7718 -7.7987 -1.70522 8.37688 -5.17024 1.04879 -0.777836 -1.48111 -4.20475 6.38931 -6.4284 6.44384 -28.1775 -10.671 -0.0 0.0 0.0 -0.0 0.0 0.0 -4.16639e-14 -2.02062e-13 3.31473e-14 84.0935 27.5428 -3.93302 -13.0814 -6.23657 23.7235 -0.147158 -10.8704 -1.54653 4.55514e-10 -4.31962e-10 1.06864e-09 7.80003e-10 -7.35929e-10 1.85113e-09 4.55514e-10 -4.31959e-10 1.06863e-09 7.73091 5.47488 0.417314 4.5551e-10 -4.31957e-10 1.06864e-09 2.90554 0.965183 0.102902 4.55517e-10 -4.3196e-10 1.06864e-09 10.2786 0.731801 0.0259123 4.55504e-10 -4.3196e-10 1.06864e-09 2.22167 -0.733487 -0.20892 -4.18284e-14 -2.02068e-13 3.28492e-14 -85.1314 22.8927 0.780087 11.2658 -4.94689 -20.1977 0.455081 -18.82 2.74544 4.39657e-10 7.72321e-10 -1.66594e-09 7.8276e-10 1.36204e-09 -2.87497e-09 4.39641e-10 7.72318e-10 -1.66592e-09 -7.73091 5.47488 -0.417314 4.39648e-10 7.72316e-10 -1.66594e-09 -2.90554 0.965183 -0.102902 4.39641e-10 7.72317e-10 -1.66593e-09 -10.2786 0.731801 -0.0259123 4.39664e-10 7.72324e-10 -1.66594e-09 -2.22167 -0.733487 0.20892 -2.03217e-16 0.0 -3.88251e-19 -2.652 -7.52469 7.03367 -0.0644346 18.3174 0.189258 -1.56738 -1.39129 -10.947 2.03217e-16 0.0 3.88251e-19 -4.16369 7.42963 2.05377 0.0167802 12.4403 -0.324627 6.86887 -10.7927 23.3107
57.3783 85.1453 4.9544 -0.9893 3.8952 -7.6784 -1.82239 9.00282 -5.63032 1.11 -0.827112 -1.61279 -4.48944 6.89251 -6.87845 6.72302 -30.1379 -11.5488 -0.0 0.0 0.0 -0.0 0.0 0.0 -4.18133e-14 -2.07674e-13 9.15341e-15 90.1621 29.6337 -4.2263 -13.8713 -6.63641 25.5439 -0.182922 -11.7264 -1.67321 3.85206e-10 -7.15544e-10 1.17782e-09 6.58209e-10 -1.22724e-09 2.03901e-09 3.85206e-10 -7.1554e-10 1.17781e-09 7.73091 5.47488 0.417314 3.85202e-10 -7.15538e-10 1.17782e-09 2.90554 0.965183 0.102902 3.8521e-10 -7.15541e-10 1.17782e-09 10.2786 0.731801 0.0259123 3.85198e-10 -7.15541e-10 1.17783e-09 2.22167 -0.733487 -0.20892 -4.19542e-14 -2.0768e-13 8.85912e-15 -91.1031 24.7361 0.794054 12.0108 -5.30176 -21.7937 0.579501 -20.4903 3.01887 3.26514e-10 3.6215e-10 -1.74963e-09 5.87478e-10 6.50747e-10 -3.02036e-09 3.26499e-10 3.62148e-10 -1.74961e-09 -7.73091 5.47488 -0.417314 3.26506e-10 3.62146e-10 -1.74962e-09 -2.90554 0.965183 -0.102902 3.26499e-10 3.62147e-10 -1.74962e-09 -10.2786 0.731801 -0.0259123 3.2652e-10 3.62152e-10 -1.74962e-09 -2.22167 -0.733487 0.20892 -2.03217e-16 0.0 -3.88251e-19 -2.89237 -7.7886 7.50164 -0.0740365 19.5201 0.20774 -1.71097 -1.70072 -11.7307 2.03217e-16 0.0 3.88251e-19 -4.4694 8.13121 2.19451 0.0241018 13.362 -0.354358 7.77526 -11.7324 24.9549
